<?xml version="1.0" encoding="UTF-8"?>
<svg width="154px" height="154px" viewBox="0 0 154 154" version="1.1" xmlns="http://www.w3.org/2000/svg" xmlns:xlink="http://www.w3.org/1999/xlink">
    <title>C45B0CDE-6615-45DC-8115-DBE4B16C575C@2x</title>
    <g id="04-About" stroke="none" stroke-width="1" fill="none" fill-rule="evenodd">
        <g id="L-04.02-A" transform="translate(-295.000000, -1226.000000)" fill-rule="nonzero">
            <g id="Group-15" transform="translate(208.000000, 985.000000)">
                <g id="Group-2" transform="translate(87.000000, 241.000000)">
                    <g id="Threema-+-Signal-Icon" transform="translate(0.000000, 0.000000)">
                        <rect id="BG" fill="#3A76F0" x="64" y="64" width="90" height="90" rx="4.39453125"></rect>
                        <path d="M101.655996,79.2916859 L102.344496,82.0743751 C99.6360716,82.7404552 97.0439939,83.8124277 94.6562417,85.2539081 L93.1836159,82.7963442 C95.8149143,81.2076897 98.671339,80.0261099 101.655996,79.2916859 Z M115.655504,82.0743751 C118.363928,82.7404552 120.956006,83.8124277 123.343758,85.2539081 L124.825947,82.7963442 C122.191683,81.2068037 119.331971,80.0251979 116.344004,79.2916859 L115.655504,82.0743751 Z M82.7987349,93.1812252 C81.2100803,95.8125237 80.0285006,98.6689483 79.2940766,101.653605 L82.0767657,102.342106 C82.7428459,99.6336809 83.8148183,97.0416033 85.2562988,94.6538511 L82.7987349,93.1812252 Z M81.5795154,104.842701 L78.7442325,104.412388 C78.2852558,107.451974 78.2852558,110.543245 78.7442325,113.582831 L81.5795154,113.152518 C81.3716978,111.777322 81.2678099,110.388419 81.268734,108.997609 C81.2678099,107.606799 81.3716978,106.217897 81.5795154,104.842701 Z M123.343758,132.741311 C120.958972,134.181906 118.370181,135.253852 115.665066,135.920844 L116.353567,138.703533 C119.334913,137.968198 122.188051,136.786644 124.816384,135.198875 L123.343758,132.741311 Z M136.731266,108.997609 C136.73219,110.388419 136.628302,111.777322 136.420485,113.152518 L139.255767,113.582831 C139.714744,110.543245 139.714744,107.451974 139.255767,104.412388 L136.420485,104.842701 C136.628302,106.217897 136.73219,107.606799 136.731266,108.997609 Z M135.923234,115.653113 C135.257154,118.361538 134.185182,120.953615 132.743701,123.341368 L135.201265,124.823556 C136.790806,122.189292 137.972411,119.32958 138.705923,116.341614 L135.923234,115.653113 Z M113.154909,136.422875 C110.400469,136.837281 107.599531,136.837281 104.845091,136.422875 L104.414779,139.258158 C107.454364,139.717135 110.545636,139.717135 113.585221,139.258158 L113.154909,136.422875 Z M131.323669,125.4499 C129.669688,127.689957 127.688912,129.669122 125.44751,131.321279 L127.149635,133.630624 C129.62223,131.812642 131.807736,129.633583 133.633014,127.16637 L131.323669,125.4499 Z M125.44751,86.6739402 C127.689263,88.3275517 129.670058,90.3083466 131.323669,92.5500999 L133.633014,90.8288489 C131.813554,88.3630413 129.634568,86.1840549 127.168761,84.3645951 L125.44751,86.6739402 Z M86.6763308,92.5500999 C88.3299423,90.3083466 90.3107372,88.3275517 92.5524905,86.6739402 L90.8312395,84.3645951 C88.3654319,86.1840549 86.1864455,88.3630413 84.3669858,90.8288489 L86.6763308,92.5500999 Z M132.743701,94.6538511 C134.184297,97.0386377 135.256243,99.6274285 135.923234,102.332543 L138.705923,101.644043 C137.970588,98.6626959 136.789035,95.809558 135.201265,93.1812252 L132.743701,94.6538511 Z M104.845091,81.5771248 C107.599531,81.1627186 110.400469,81.1627186 113.154909,81.5771248 L113.585221,78.7418419 C110.545636,78.2828652 107.454364,78.2828652 104.414779,78.7418419 L104.845091,81.5771248 Z M88.1489567,134.390843 L82.2249845,135.772625 L83.6067666,129.848653 L80.814515,129.193621 L79.4327329,135.117593 C79.2064552,136.083867 79.4956632,137.09846 80.1974063,137.800203 C80.8991494,138.501946 81.9137423,138.791154 82.8800161,138.564876 L88.7992071,137.207001 L88.1489567,134.390843 Z M81.4121715,126.635651 L84.2044232,127.285901 L85.1606737,123.178805 C83.766865,120.836218 82.7276248,118.300149 82.0767657,115.653113 L79.2940766,116.341614 C79.9178889,118.876887 80.86602,121.321136 82.1150157,123.613899 L81.4121715,126.635651 Z M94.7996793,132.851279 L90.6925832,133.80753 L91.3428335,136.599782 L94.3645853,135.896937 C96.657348,137.145933 99.1015978,138.094064 101.636871,138.717877 L102.325371,135.935187 C99.6838937,135.27655 97.1543411,134.230894 94.8188043,132.832154 L94.7996793,132.851279 Z M109,84.1350865 C99.9530353,84.1397806 91.6226634,89.0583811 87.2489159,96.9778461 C82.8751684,104.897311 83.1484569,114.567525 87.9624878,122.227336 L85.5718615,132.425748 L95.7702736,130.035122 C104.715497,135.669143 116.245315,135.030374 124.513438,128.442707 C132.781561,121.85504 135.979693,110.759244 132.486195,100.781535 C128.992696,90.8038251 119.57162,84.1263968 109,84.1350865 Z" id="Shape" fill="#FFFFFF"></path>
                        <rect id="BG" fill="#323232" x="0" y="0" width="90" height="90" rx="4.39453125"></rect>
                        <path d="M32.3282233,60.5385497 L17.8417969,64.1601562 L20.9377316,51.7764174 C17.8716068,47.7373794 16.0839844,42.8829529 16.0839844,37.6611328 C16.0839844,23.6086141 29.0301255,12.2167969 45,12.2167969 C60.9698745,12.2167969 73.9160156,23.6086141 73.9160156,37.6611328 C73.9160156,51.7136515 60.9698745,63.1054688 45,63.1054688 C40.454907,63.1054688 36.154735,62.1827368 32.3282233,60.5385497 L32.3282233,60.5385497 Z M36.796875,35.5489528 L36.4746094,35.5489528 C35.7464996,35.5489528 35.15625,36.1392024 35.15625,36.8673122 L35.15625,48.4277344 C35.15625,49.1558441 35.7464996,49.7460938 36.4746094,49.7460938 L53.5253906,49.7460938 C54.2535004,49.7460938 54.84375,49.1558441 54.84375,48.4277344 L54.84375,36.8673122 C54.84375,36.1392024 54.2535004,35.5489528 53.5253906,35.5489528 L53.203125,35.5489528 L53.203125,32.2726895 C53.203125,27.7532424 49.533053,24.0820312 44.996156,24.0820312 C40.466947,24.0820312 36.796875,27.7532424 36.796875,32.2726895 L36.796875,35.5489528 Z M49.921875,35.5489528 L40.078125,35.5489528 L40.078125,32.2732652 C40.078125,29.561597 42.2801682,27.3582946 44.9976936,27.3582946 C47.7198318,27.3582946 49.921875,29.561597 49.921875,32.2732652 C49.921875,34.0844984 49.921875,35.1763943 49.921875,35.5489528 Z" id="Shape" fill="#FFFFFF"></path>
                        <path d="M49.9175877,74.5303853 C49.9175877,77.2505737 47.7165036,79.453125 44.9955509,79.453125 C42.2792091,79.453125 40.078125,77.2505737 40.078125,74.5303853 C40.078125,71.815385 42.2792091,69.609375 44.9955509,69.609375 C47.7165036,69.609375 49.9175877,71.815385 49.9175877,74.5303853 Z M32.1679688,74.5303853 C32.1679688,77.2505737 29.9668846,79.453125 27.245932,79.453125 C24.5295902,79.453125 22.3285061,77.2505737 22.3285061,74.5303853 C22.3285061,71.815385 24.5295902,69.609375 27.245932,69.609375 C29.9668846,69.609375 32.1679688,71.815385 32.1679688,74.5303853 Z M67.6672066,74.5303853 C67.6672066,77.2505737 65.4661224,79.453125 62.7451698,79.453125 C60.028828,79.453125 57.8277439,77.2505737 57.8277439,74.5303853 C57.8277439,71.815385 60.028828,69.609375 62.7451698,69.609375 C65.4661224,69.609375 67.6672066,71.815385 67.6672066,74.5303853 Z" id="Dots" fill="#05A63F"></path>
                    </g>
                </g>
            </g>
        </g>
    </g>
</svg>